<svg width="174" height="164" viewBox="0 0 174 164" fill="none" xmlns="http://www.w3.org/2000/svg">
<path d="M70.8257 148.425C107.874 157.644 146.271 136.331 156.54 100.74C166.809 65.1489 145.031 28.8619 107.982 19.6426C70.9335 10.4233 32.5365 31.736 22.2677 67.3272C11.9989 102.918 33.7772 139.205 70.8257 148.425Z" fill="#A56402" stroke="#5B3303" stroke-width="2"/>
<path d="M66.3999 144.328C103.448 153.547 141.845 132.235 152.114 96.6435C162.383 61.0522 140.605 24.7652 103.556 15.5459C66.5077 6.3266 28.1107 27.6393 17.8419 63.2306C7.57311 98.8218 29.3514 135.109 66.3999 144.328Z" fill="#FFB423" stroke="#5B3303" stroke-width="2"/>
<path d="M69.7924 132.432C99.7751 139.893 130.897 122.47 139.269 93.4536C147.641 64.4374 130.069 34.897 100.086 27.436C70.1032 19.975 38.981 37.3981 30.6093 66.4142C22.2375 95.4304 39.8097 124.971 69.7924 132.432Z" fill="#FFCF23" stroke="#DF8D12" stroke-width="2"/>
<path fill-rule="evenodd" clip-rule="evenodd" d="M126.043 43.4324C119.962 38.386 112.601 34.5727 104.259 32.4969C74.7897 25.1636 44.2425 42.2927 36.0303 70.7558C30.7371 89.102 36.015 107.679 48.3272 120.531C32.9247 107.749 25.7337 87.0575 31.6214 66.6512C39.8336 38.188 70.3808 21.0589 99.8504 28.3923C110.325 30.9988 119.254 36.3452 126.043 43.4324Z" fill="#FFDD65"/>
<ellipse rx="3.04369" ry="3.00782" transform="matrix(0.923626 -0.384236 0.447472 0.894748 120.927 103.995)" fill="#EEBE14"/>
<ellipse rx="3.04369" ry="3.00782" transform="matrix(0.923626 -0.384236 0.447472 0.894748 133.559 92.2299)" fill="#EEBE14"/>
<ellipse rx="3.04369" ry="3.00782" transform="matrix(0.923626 -0.384236 0.447472 0.894748 118.263 91.0459)" fill="#EEBE14"/>
<ellipse rx="2.11971" ry="2.09473" transform="matrix(0.923626 -0.384236 0.447472 0.894748 125.536 94.9952)" fill="#EEBE14"/>
<ellipse rx="2.11971" ry="2.09473" transform="matrix(0.923626 -0.384236 0.447472 0.894748 124.68 86.0864)" fill="#EEBE14"/>
<ellipse rx="2.11971" ry="2.09473" transform="matrix(0.923626 -0.384236 0.447472 0.894748 134.68 84.0921)" fill="#EEBE14"/>
<ellipse rx="2.11971" ry="2.09473" transform="matrix(0.923626 -0.384236 0.447472 0.894748 135.969 71.4213)" fill="#EEBE14"/>
<ellipse rx="2.11971" ry="2.09473" transform="matrix(0.923626 -0.384236 0.447472 0.894748 129.235 79.7107)" fill="#EEBE14"/>
<ellipse rx="2.11971" ry="2.09473" transform="matrix(0.923626 -0.384236 0.447472 0.894748 131.012 100.411)" fill="#EEBE14"/>
<ellipse rx="1.95902" ry="1.93594" transform="matrix(0.923626 -0.384236 0.447472 0.894748 121.203 112.319)" fill="#EEBE14"/>
<ellipse rx="1.19865" ry="1.18453" transform="matrix(0.923626 -0.384236 0.447472 0.894748 126.676 106.929)" fill="#EEBE14"/>
<ellipse rx="1.63055" ry="1.61133" transform="matrix(0.923626 -0.384236 0.447472 0.894748 117.547 97.704)" fill="#EEBE14"/>
<ellipse rx="1.63055" ry="1.61133" transform="matrix(0.923626 -0.384236 0.447472 0.894748 130.344 73.0732)" fill="#EEBE14"/>
<ellipse rx="1.63055" ry="1.61133" transform="matrix(0.923626 -0.384236 0.447472 0.894748 135.387 78.8306)" fill="#EEBE14"/>
<ellipse rx="1.63055" ry="1.61133" transform="matrix(0.923626 -0.384236 0.447472 0.894748 115.356 108.735)" fill="#EEBE14"/>
<ellipse rx="1.63055" ry="1.61133" transform="matrix(0.923626 -0.384236 0.447472 0.894748 114.438 117.832)" fill="#EEBE14"/>
<path d="M69.5156 20.5817C48.9903 25.8428 32.4576 40.0409 25.0765 58.3849" stroke="#FFD179" stroke-width="2" stroke-linecap="round" stroke-linejoin="round"/>
<path d="M119.418 131.237C127.211 126.425 133.844 120.122 138.847 112.768" stroke="#FFD179" stroke-width="2" stroke-linecap="round" stroke-linejoin="round"/>
<path d="M47.4077 30.6875C47.4077 30.6875 40.7787 34.7917 36.3594 40.9481" stroke="#FFF3D2" stroke-width="2" stroke-linecap="round" stroke-linejoin="round"/>
<path d="M56.2554 40.9478C56.2554 40.9478 49.6264 45.052 45.207 51.2084" stroke="white" stroke-width="2" stroke-linecap="round" stroke-linejoin="round"/>
</svg>
